<svg width="20" height="20" viewBox="0 0 20 20" fill="none" xmlns="http://www.w3.org/2000/svg">
<g id="linkedin 1">
<g id="x31 0.Linkedin">
<path id="Vector" d="M18 18.0001V12.1401C18 9.26006 17.38 7.06006 14.02 7.06006C12.4 7.06006 11.32 7.94006 10.88 8.78006H10.84V7.32006H7.65999V18.0001H10.98V12.7001C10.98 11.3001 11.24 9.96006 12.96 9.96006C14.66 9.96006 14.68 11.5401 14.68 12.7801V17.9801H18V18.0001Z" fill="white"/>
<path id="Vector_2" d="M2.25999 7.31982H5.57999V17.9998H2.25999V7.31982Z" fill="white"/>
<path id="Vector_3" d="M3.91999 2C2.85999 2 1.99999 2.86 1.99999 3.92C1.99999 4.98 2.85999 5.86 3.91999 5.86C4.97999 5.86 5.83999 4.98 5.83999 3.92C5.83999 2.86 4.97999 2 3.91999 2Z" fill="white"/>
</g>
</g>
</svg>
